<svg xmlns="http://www.w3.org/2000/svg" xmlns:xlink="http://www.w3.org/1999/xlink" width="146.637" height="45.618" viewBox="0 0 146.637 45.618">
  <defs>
    <clipPath id="clip-path">
      <rect id="사각형_37" data-name="사각형 37" width="146.637" height="45.618" fill="none"/>
    </clipPath>
  </defs>
  <g id="그룹_16" data-name="그룹 16" transform="translate(0 0)">
    <g id="그룹_15" data-name="그룹 15" transform="translate(0 0)" clip-path="url(#clip-path)">
      <path id="패스_1" data-name="패스 1" d="M42.1,34.591a6.94,6.94,0,0,1-13.875.133A6.938,6.938,0,0,1,42.1,34.591m-6.86-2.95a2.926,2.926,0,0,0-3.08,2.854,2.963,2.963,0,0,0,2.853,3.1,2.98,2.98,0,1,0,.228-5.951" transform="translate(-13.069 -12.838)" fill="#182463"/>
      <path id="패스_2" data-name="패스 2" d="M22.515,54.544a3.51,3.51,0,0,1-.524,1.708c-2.5,4.993-6.3,8.927-10.35,12.651a4.129,4.129,0,0,1-1.09.626,2.192,2.192,0,0,1-2.924-.554,2.1,2.1,0,0,1,.416-2.922,77.44,77.44,0,0,0,5.942-6.316,62.212,62.212,0,0,0,4.278-6.25,2.164,2.164,0,0,1,2.8-1,2,2,0,0,1,1.452,2.059" transform="translate(-3.336 -24.223)" fill="#172362"/>
      <path id="패스_3" data-name="패스 3" d="M61.509,67.138a4.412,4.412,0,0,1-2.8-1.043,77.5,77.5,0,0,1-9.514-9.1,2.828,2.828,0,0,1-.059-4.043c1.075-.9,2.478-.635,3.775.782A82.665,82.665,0,0,0,62.5,63.016a2.244,2.244,0,0,1-.99,4.122" transform="translate(-22.373 -24.279)" fill="#172362"/>
      <path id="패스_4" data-name="패스 4" d="M60.075,35.455a20.876,20.876,0,0,1-2.781-.022,2.146,2.146,0,0,1-1.931-2.249,1.972,1.972,0,0,1,1.983-2.133c3.71-.357,7.421-.681,11.1-1.344a2.119,2.119,0,0,1,2.707,1.51c.381,1.471-.515,2.316-1.75,2.72a38.691,38.691,0,0,1-9.324,1.518" transform="translate(-25.637 -13.73)" fill="#182363"/>
      <path id="패스_5" data-name="패스 5" d="M10.053,35.887a34.925,34.925,0,0,1-8.142-1.8C.551,33.615-.358,32.76.136,31.259c.472-1.436,1.667-1.731,3.086-1.425,2.642.569,5.285,1.145,7.947,1.609,2.216.387,3.072,1.007,2.933,2.417C13.95,35.394,12.94,36,10.053,35.887" transform="translate(0 -13.765)" fill="#182363"/>
      <path id="패스_6" data-name="패스 6" d="M44.741,5.048a37.665,37.665,0,0,1-.7,6.8,2.142,2.142,0,0,1-2.72,1.922c-1.5-.242-1.942-1.33-1.8-2.65q.447-4.034.568-8.087a5.77,5.77,0,0,1,.193-1.061A2.13,2.13,0,0,1,42.675.014a2.214,2.214,0,0,1,2.055,2.331c.056.9.011,1.8.012,2.7" transform="translate(-18.293 0)" fill="#172362"/>
      <path id="패스_7" data-name="패스 7" d="M41.376,58.039c-.367,2.563-.691,5.01-1.078,7.446a1.99,1.99,0,0,1-2.436,1.833,1.77,1.77,0,0,1-1.6-2.21c.278-2.571.587-5.141,1-7.694A1.967,1.967,0,0,1,39.68,55.56a2.108,2.108,0,0,1,1.7,2.478" transform="translate(-16.784 -25.707)" fill="#fea033"/>
      <path id="패스_8" data-name="패스 8" d="M58.177,43.753a3.222,3.222,0,0,1,.756.173c2.283.93,4.583,1.825,6.823,2.851,1.147.525,2.08,1.385,1.43,2.855-.619,1.4-1.842,1.25-2.937.824-2.408-.935-4.778-1.974-7.141-3.02a1.814,1.814,0,0,1-1.137-2.357,1.894,1.894,0,0,1,2.206-1.326" transform="translate(-25.868 -20.258)" fill="#fe9f32"/>
      <path id="패스_9" data-name="패스 9" d="M60.859,15.558c.054,2.046-5.807,6.778-7.758,6.263a2.055,2.055,0,0,1-.783-3.481,49.774,49.774,0,0,1,5.3-4.3,1.963,1.963,0,0,1,3.245,1.522" transform="translate(-23.919 -6.29)" fill="#fe9f32"/>
      <path id="패스_10" data-name="패스 10" d="M17.682,47.127a2.214,2.214,0,0,1-1.555,2.208c-1.66.533-3.334,1.035-5.028,1.437A2.2,2.2,0,0,1,8.252,49.2a2.1,2.1,0,0,1,1.6-2.781,45.753,45.753,0,0,1,4.863-1.339c1.7-.349,2.906.568,2.962,2.046" transform="translate(-3.764 -20.842)" fill="#fe9f32"/>
      <path id="패스_11" data-name="패스 11" d="M25.042,9.311A2.3,2.3,0,0,1,27.2,10.7c.885,1.64,1.711,3.312,2.538,4.983a1.859,1.859,0,0,1-.459,2.58,2,2,0,0,1-2.914-.362,18.266,18.266,0,0,1-3.259-6.39c-.366-1.242.609-2.213,1.938-2.2" transform="translate(-10.663 -4.311)" fill="#fea034"/>
      <path id="패스_12" data-name="패스 12" d="M15.595,20.9a1.553,1.553,0,0,1,2.313-1.372A9.782,9.782,0,0,1,21.3,22.391a1.585,1.585,0,0,1-1.073,2.451c-1.327.232-4.637-2.583-4.632-3.94" transform="translate(-7.222 -8.959)" fill="#fea134"/>
      <path id="패스_13" data-name="패스 13" d="M101.29,47.827a23.1,23.1,0,0,0,3.739-.341l.149,1.588a25.084,25.084,0,0,1-4.867.371h-.95V40.424h5.06v1.588H101.29Zm9.407-8.991v13.68h-1.855v-6.84h-1.231v6.2h-1.825V39.1h1.825v5h1.231V38.836Z" transform="translate(-46.011 -17.984)" fill="#182363"/>
      <path id="패스_14" data-name="패스 14" d="M131.288,47.069a5.1,5.1,0,0,1-3.1-2.7,5.37,5.37,0,0,1-3.264,2.968l-.994-1.558a4.392,4.392,0,0,0,3.22-4.243v-.193h-2.686V39.784h7.344v1.558h-2.656v.178a4.205,4.205,0,0,0,3.086,4.021Zm4.452,3.665v1.558h-9.318V48h1.958v2.73ZM133.469,42.4V38.864h1.958v9.971h-1.958V43.983h-2.136V42.4Z" transform="translate(-57.388 -17.997)" fill="#182363"/>
      <path id="패스_15" data-name="패스 15" d="M161.852,45.922V47.48H149.492V45.922h5.178V44.794h-3.605V39.527h1.944v1.2h5.327v-1.2h1.944v5.267h-3.65v1.128Zm-10.995,2.492h9.5v4.437h-1.959V49.972h-7.537Zm2.151-5.149h5.327V42.2h-5.327Z" transform="translate(-69.226 -18.304)" fill="#182363"/>
      <path id="패스_16" data-name="패스 16" d="M182.945,41.5h-8.057V39.975h3.042V38.67H179.9v1.305h3.057Zm-4.021,5.208c-1.973,0-3.353-.979-3.353-2.418s1.38-2.418,3.353-2.418,3.353.964,3.353,2.418-1.379,2.418-3.353,2.418m4.793.579h1.944v4.985h-8.888V47.29h1.944v1.039h5Zm-4.793-2c.876,0,1.484-.341,1.484-.994s-.608-.994-1.484-.994-1.484.341-1.484.994.608.994,1.484.994m4.793,4.51h-5v.964h5Zm3.754-6.142h-1.81v3.131H183.7v-8h1.959v3.264h1.81Z" transform="translate(-80.986 -17.907)" fill="#182363"/>
      <path id="패스_17" data-name="패스 17" d="M203.446,47.872a32.1,32.1,0,0,0,5.015-.356l.178,1.573a36.774,36.774,0,0,1-6.024.356H201.5V39.993h6.321v1.573h-4.377v2.226h3.917V45.32h-3.917Zm8.9-9.036V52.545H210.39V45.231h-2.345V43.658h2.345V38.836Z" transform="translate(-93.31 -17.984)" fill="#182363"/>
      <path id="패스_18" data-name="패스 18" d="M233.583,49.279H227.01V40.095h6.573Zm-4.644-1.543h2.715v-6.1h-2.715Zm8.724,4.822H235.7V38.863h1.958Z" transform="translate(-105.122 -17.996)" fill="#182363"/>
      <path id="패스_19" data-name="패스 19" d="M259.947,44.934a32.972,32.972,0,0,1-6.217.519h-1.157V39.4h1.943v4.437a33.7,33.7,0,0,0,5.179-.475Zm3.65,5.89v1.529h-9.333v-3.8H261.3V47.8h-7.048V46.27h9.006v3.724h-7.032v.831Zm-2.3-8.516h-3.309V40.75H261.3V38.836h1.958v6.915H261.3Z" transform="translate(-116.96 -17.984)" fill="#182363"/>
      <path id="패스_20" data-name="패스 20" d="M100.43,20.829h1.28a2.081,2.081,0,0,1,2.309,2.322,2.093,2.093,0,0,1-2.258,2.353H100.43Zm1.224,3.924c.87,0,1.413-.467,1.413-1.6s-.543-1.571-1.413-1.571h-.29v3.173Z" transform="translate(-46.507 -9.645)" fill="#182363"/>
      <path id="패스_21" data-name="패스 21" d="M108.351,25.453c0-.757.612-1.154,2.038-1.306-.019-.347-.17-.612-.606-.612a2,2,0,0,0-.971.334l-.335-.612a2.827,2.827,0,0,1,1.476-.467c.9,0,1.356.536,1.356,1.558v2.063h-.757l-.063-.379h-.025a1.66,1.66,0,0,1-1.066.467,1,1,0,0,1-1.048-1.048m2.038-.025v-.713c-.864.107-1.154.347-1.154.663,0,.278.2.4.467.4a.96.96,0,0,0,.687-.347" transform="translate(-50.175 -10.554)" fill="#182363"/>
      <path id="패스_22" data-name="패스 22" d="M115.215,24.646a1.731,1.731,0,0,1,1.646-1.855c.972,0,1.476.713,1.476,1.685a1.737,1.737,0,0,1-.044.428h-2.176a.928.928,0,0,0,.978.883,1.455,1.455,0,0,0,.795-.246l.315.568a2.225,2.225,0,0,1-1.23.391,1.715,1.715,0,0,1-1.76-1.855m2.328-.359c0-.473-.214-.776-.669-.776a.8.8,0,0,0-.769.776Z" transform="translate(-53.353 -10.554)" fill="#182363"/>
      <path id="패스_23" data-name="패스 23" d="M120.892,26.473l.164-.687a.925.925,0,0,0,.3.05c.3,0,.385-.2.385-.6V21.59h.927v3.621c0,.757-.29,1.356-1.18,1.356a1.672,1.672,0,0,1-.593-.094m.769-5.961a.54.54,0,1,1,.536.511.5.5,0,0,1-.536-.511" transform="translate(-55.982 -9.265)" fill="#182363"/>
      <path id="패스_24" data-name="패스 24" d="M125.64,24.646a1.731,1.731,0,0,1,1.646-1.855c.972,0,1.476.713,1.476,1.685a1.737,1.737,0,0,1-.044.428h-2.176a.928.928,0,0,0,.978.883,1.455,1.455,0,0,0,.795-.246l.315.568a2.225,2.225,0,0,1-1.23.391,1.715,1.715,0,0,1-1.76-1.855m2.328-.359c0-.473-.214-.776-.669-.776a.8.8,0,0,0-.769.776Z" transform="translate(-58.181 -10.554)" fill="#182363"/>
      <path id="패스_25" data-name="패스 25" d="M132.467,24.646a1.7,1.7,0,1,1,3.394,0,1.7,1.7,0,1,1-3.394,0m2.448,0c0-.662-.272-1.1-.751-1.1s-.751.435-.751,1.1.272,1.1.751,1.1.751-.428.751-1.1" transform="translate(-61.342 -10.554)" fill="#182363"/>
      <path id="패스_26" data-name="패스 26" d="M140.236,22.88h.757l.069.467h.019a1.63,1.63,0,0,1,1.148-.556c.763,0,1.092.53,1.092,1.42v2.2h-.928V24.324c0-.549-.151-.738-.5-.738a.992.992,0,0,0-.732.4v2.429h-.927Z" transform="translate(-64.94 -10.554)" fill="#182363"/>
      <path id="패스_27" data-name="패스 27" d="M151.174,21.611h-1.312v-.782h3.571v.782h-1.325V25.5h-.934Z" transform="translate(-69.397 -9.645)" fill="#182363"/>
      <path id="패스_28" data-name="패스 28" d="M156.4,24.646a1.731,1.731,0,0,1,1.647-1.855c.971,0,1.476.713,1.476,1.685a1.737,1.737,0,0,1-.044.428H157.3a.928.928,0,0,0,.978.883,1.455,1.455,0,0,0,.795-.246l.315.568a2.225,2.225,0,0,1-1.23.391,1.716,1.716,0,0,1-1.76-1.855m2.328-.359c0-.473-.214-.776-.668-.776a.8.8,0,0,0-.77.776Z" transform="translate(-72.423 -10.554)" fill="#182363"/>
      <path id="패스_29" data-name="패스 29" d="M163.636,22.88h.757l.07.624h.019a1.225,1.225,0,0,1,1-.713.992.992,0,0,1,.417.076l-.158.8a1.176,1.176,0,0,0-.373-.057c-.277,0-.612.183-.807.694v2.107h-.928Z" transform="translate(-75.776 -10.554)" fill="#182363"/>
      <path id="패스_30" data-name="패스 30" d="M168.76,22.88h.757l.07.473h.019a1.489,1.489,0,0,1,1.085-.562.961.961,0,0,1,.971.619,1.568,1.568,0,0,1,1.123-.619c.751,0,1.1.53,1.1,1.42v2.2h-.928V24.324c0-.549-.157-.738-.492-.738a1.031,1.031,0,0,0-.681.4v2.429h-.921V24.324c0-.549-.164-.738-.5-.738a1,1,0,0,0-.674.4v2.429h-.928Z" transform="translate(-78.148 -10.554)" fill="#182363"/>
      <path id="패스_31" data-name="패스 31" d="M179.95,20.511a.54.54,0,1,1,.543.511.5.5,0,0,1-.543-.511m.075,1.079h.928v3.533h-.928Z" transform="translate(-83.33 -9.265)" fill="#182363"/>
      <path id="패스_32" data-name="패스 32" d="M183.663,22.88h.757l.07.467h.019a1.627,1.627,0,0,1,1.148-.556c.763,0,1.092.53,1.092,1.42v2.2h-.927V24.324c0-.549-.152-.738-.5-.738a.991.991,0,0,0-.732.4v2.429h-.928Z" transform="translate(-85.05 -10.554)" fill="#182363"/>
      <path id="패스_33" data-name="패스 33" d="M190.869,25.453c0-.757.612-1.154,2.038-1.306-.019-.347-.17-.612-.606-.612a2,2,0,0,0-.972.334l-.335-.612a2.828,2.828,0,0,1,1.477-.467c.9,0,1.356.536,1.356,1.558v2.063h-.757l-.063-.379h-.025a1.661,1.661,0,0,1-1.066.467,1,1,0,0,1-1.047-1.048m2.038-.025v-.713c-.864.107-1.154.347-1.154.663,0,.278.2.4.467.4a.96.96,0,0,0,.688-.347" transform="translate(-88.386 -10.554)" fill="#182363"/>
      <path id="패스_34" data-name="패스 34" d="M198.142,24.2V20.16h.928v4.082c0,.214.094.283.183.283a.538.538,0,0,0,.127-.012l.113.687a1.241,1.241,0,0,1-.479.082c-.643,0-.871-.423-.871-1.079" transform="translate(-91.754 -9.336)" fill="#182363"/>
      <path id="패스_35" data-name="패스 35" d="M204.22,23.117a2.216,2.216,0,0,1,2.17-2.441,1.905,1.905,0,0,1,1.369.6l-.485.593a1.23,1.23,0,0,0-.864-.391c-.707,0-1.237.606-1.237,1.609s.48,1.628,1.218,1.628a1.289,1.289,0,0,0,.965-.461l.492.58a1.891,1.891,0,0,1-1.489.688,2.15,2.15,0,0,1-2.138-2.4" transform="translate(-94.569 -9.575)" fill="#182363"/>
      <path id="패스_36" data-name="패스 36" d="M211.823,24.646a1.7,1.7,0,1,1,3.394,0,1.7,1.7,0,1,1-3.394,0m2.448,0c0-.662-.272-1.1-.751-1.1s-.751.435-.751,1.1.271,1.1.751,1.1.751-.428.751-1.1" transform="translate(-98.09 -10.554)" fill="#182363"/>
      <path id="패스_37" data-name="패스 37" d="M219.592,22.88h.757l.07.473h.019a1.489,1.489,0,0,1,1.085-.562.961.961,0,0,1,.971.619,1.568,1.568,0,0,1,1.123-.619c.751,0,1.1.53,1.1,1.42v2.2h-.928V24.324c0-.549-.157-.738-.492-.738a1.031,1.031,0,0,0-.681.4v2.429h-.921V24.324c0-.549-.164-.738-.5-.738a1,1,0,0,0-.674.4v2.429h-.928Z" transform="translate(-101.687 -10.554)" fill="#182363"/>
      <path id="패스_38" data-name="패스 38" d="M230.922,22.879h.757l.07.366h.019a1.676,1.676,0,0,1,1.041-.454c.871,0,1.388.713,1.388,1.8,0,1.211-.725,1.911-1.5,1.911a1.313,1.313,0,0,1-.877-.385l.031.58v1.072h-.927Zm2.322,1.722c0-.675-.214-1.047-.7-1.047a.974.974,0,0,0-.694.366v1.552a.962.962,0,0,0,.637.265c.429,0,.757-.366.757-1.136" transform="translate(-106.934 -10.554)" fill="#182363"/>
      <path id="패스_39" data-name="패스 39" d="M238.49,24.2V20.16h.928v4.082c0,.214.094.283.183.283a.538.538,0,0,0,.127-.012l.113.687a1.241,1.241,0,0,1-.479.082c-.643,0-.871-.423-.871-1.079" transform="translate(-110.439 -9.336)" fill="#182363"/>
      <path id="패스_40" data-name="패스 40" d="M241.781,24.646a1.731,1.731,0,0,1,1.647-1.855c.971,0,1.476.713,1.476,1.685a1.738,1.738,0,0,1-.044.428h-2.176a.928.928,0,0,0,.978.883,1.455,1.455,0,0,0,.795-.246l.315.568a2.225,2.225,0,0,1-1.23.391,1.715,1.715,0,0,1-1.76-1.855m2.328-.359c0-.473-.214-.776-.668-.776a.8.8,0,0,0-.77.776Z" transform="translate(-111.962 -10.554)" fill="#182363"/>
      <path id="패스_41" data-name="패스 41" d="M249.2,24.647l-1.035-1.691h1l.354.624c.1.2.208.4.315.6h.025c.083-.2.177-.4.259-.6l.3-.624h.958l-1.035,1.8,1.1,1.735h-1l-.391-.65c-.113-.2-.227-.417-.34-.619h-.032c-.1.2-.2.41-.3.619l-.329.65h-.958Z" transform="translate(-114.885 -10.63)" fill="#182363"/>
    </g>
  </g>
</svg>
