<svg width="109" height="36" viewBox="0 0 109 36" fill="none" xmlns="http://www.w3.org/2000/svg">
<g clip-path="url(#clip0_48_53)">
<path d="M86.3057 8.82435C86.3057 9.1299 86.3501 9.44657 86.4723 9.74657C87.0112 11.0799 88.3834 11.9021 90.1279 11.2077C90.5445 11.041 102.083 6.39102 102.083 6.39102C102.083 6.39102 97.539 17.9132 97.3668 18.341C96.7057 19.991 97.5001 21.4855 98.8501 21.9855C99.1501 22.0966 99.4612 22.1521 99.7668 22.1466C100.872 22.141 101.845 21.491 102.322 20.191C102.395 19.9966 108.078 4.39102 108.2 4.01879C108.272 3.79657 108.406 3.27435 108.406 2.91324C108.406 2.14102 108.122 1.41324 107.572 0.863238C107.033 0.318793 106.311 0.0410156 105.55 0.0410156C105.178 0.0410156 104.878 0.107682 104.422 0.252127C104.15 0.341016 89.5001 5.79102 88.2501 6.25768C87.0001 6.72435 86.3057 7.72435 86.3112 8.82435" fill="#ED1C24"/>
<path d="M58.8556 17.6243V17.291H49.9723V19.5632H55.1334C53.789 23.8188 48.9834 26.3188 48.9834 26.3188L50.2667 28.1132C50.2667 28.1132 58.8556 24.5688 58.8556 17.6188V17.6243Z" fill="white"/>
<path d="M56.0499 32.7135V28.2969H52.8999V33.2747C52.8999 34.8302 54.1388 35.9524 55.8388 35.9524H65.5999V33.6858H57.1499C56.3832 33.6858 56.061 33.3802 56.0443 32.7135H56.0499Z" fill="white"/>
<path d="M58.5 21.4805V23.7527H62.25V29.2305H65.4V17.0527H62.25V21.4805H58.5Z" fill="white"/>
<path d="M85.6447 26.1793H88.7947V16.957H85.6447V19.8293H82.3613V22.0737H85.6447V26.1793Z" fill="white"/>
<path d="M14.9889 28.125H3V33.275C3 34.8306 4.23889 35.9528 5.93889 35.9528H15.6889V28.825C15.6889 28.4361 15.3722 28.125 14.9889 28.125ZM12.5389 33.6861H7.25C6.48333 33.6861 6.15556 33.3861 6.14444 32.7139V30.4028H12.5389V33.6861Z" fill="white"/>
<path d="M15.9 17.3243V17.2188H2.82778V19.491H12.6056C12.6056 19.641 12.6056 19.8299 12.6056 20.0132C12.6056 22.1243 12.5 23.5132 12.4444 24.0799H0V26.3521H19.1722V24.0799H15.25C15.4389 23.3688 15.9056 21.1688 15.9056 17.3243H15.9Z" fill="white"/>
<path d="M35.4776 29.2688C38.0943 28.6965 40.0276 26.7354 40.0276 24.4132C40.0276 23.1632 39.4665 22.0188 38.5443 21.1354H41.8887V18.8632H35.4776V16.7188H32.3332V18.8632H25.9221V21.1354H29.2665C28.3443 22.0188 27.7832 23.1576 27.7832 24.4132C27.7832 26.741 29.7165 28.6965 32.3387 29.2688V31.5688H24.3276V33.841H43.4943V31.5688H35.4832V29.2688H35.4776ZM31.0165 24.341C31.0165 22.791 32.311 21.5243 33.8999 21.5243C35.4887 21.5243 36.7832 22.7854 36.7832 24.341C36.7832 25.8965 35.4887 27.1576 33.8999 27.1576C32.311 27.1576 31.0165 25.8965 31.0165 24.341Z" fill="white"/>
<path d="M79.622 25.9851H82.672C82.5442 25.2462 81.4276 19.2796 78.522 17.2129H75.0054L72.2998 26.0573H75.4609L77.2609 19.6907C78.7776 21.4684 79.5165 25.4018 79.6165 25.9851H79.622Z" fill="white"/>
<path d="M80.2498 33.7637C79.4498 33.7637 79.3054 33.5582 79.3054 32.8804V32.597H88.7998V27.8193C88.7998 27.4082 88.4998 27.0859 88.0721 27.0859H76.2109V29.2748H85.7832V30.447H76.2943V33.2748C76.2943 34.9137 77.472 35.9526 79.2332 35.9526H89.0054V33.7637H80.2498Z" fill="white"/>
</g>
<defs>
<clipPath id="clip0_48_53">
<rect width="108.417" height="35.9167" fill="white" transform="translate(0 0.0410156)"/>
</clipPath>
</defs>
</svg>
