<svg width="130" height="22" viewBox="0 0 130 22" fill="none" xmlns="http://www.w3.org/2000/svg">
<path d="M129.879 11.1459L126.071 11.0974V13.6807C126.071 17.0038 125.489 19.4415 125.21 20.1692C125.028 20.3754 124.604 20.4966 124.349 20.4239C124.191 19.8417 123.864 18.0346 123.864 15.0269V3.40821C123.864 2.92309 122.493 1.91646 121.984 1.7588C121.851 1.71028 122.287 1.20091 122.421 1.20091C123.464 1.20091 126.205 1.83157 126.144 2.31669C126.095 2.64415 126.071 3.03224 126.071 3.45672V10.1029L128.958 8.96286C129.212 8.86584 130.352 11.1459 129.891 11.1459M121.972 12.4072C122.372 12.9651 121.293 15.3301 120.905 14.7722C120.347 13.9839 118.819 11.6553 117.448 10.1029C115.617 12.6619 113.337 14.7237 111.287 15.8152C111.032 15.791 110.729 15.415 110.729 15.1846C113.264 12.9287 116.126 8.97499 117.327 5.37296C117.4 5.16678 116.538 4.53612 116.162 4.30569C116.041 4.23292 116.563 3.84482 116.696 3.84482C117.387 3.84482 119.304 4.63315 119.765 4.9606C120.019 5.14252 120.043 5.26381 119.922 5.56701C119.413 6.88896 118.734 8.15028 117.97 9.31458C119.692 10.5031 121.596 11.8736 121.972 12.4072ZM109.662 11.3642L105.829 11.2914V13.6807C105.829 17.0038 105.296 19.4415 104.993 20.1692C104.811 20.3754 104.386 20.4966 104.156 20.4239C103.974 19.8417 103.671 18.0346 103.671 15.0269V3.40821C103.671 2.92309 102.3 1.96497 101.791 1.7588C101.669 1.71028 102.094 1.20091 102.227 1.20091C103.27 1.20091 105.951 1.83157 105.902 2.31669C105.878 2.64415 105.829 3.03224 105.829 3.45672V10.3091L108.728 9.19329C109.007 9.07201 110.147 11.3521 109.662 11.3521M97.2063 12.5043C98.2736 12.5043 99.0619 11.7644 99.0619 10.6244C99.0619 9.48437 98.3221 8.7203 97.2063 8.7203C96.0906 8.7203 95.3508 9.48437 95.3508 10.6244C95.3508 11.7644 96.0906 12.5043 97.2063 12.5043ZM93.5801 2.81394C93.5558 2.71691 93.6771 2.40158 93.8105 2.41371C94.5746 2.55925 95.3508 2.69266 96.321 2.81394L98.686 3.06863C98.8922 3.09288 99.8018 4.34207 99.1954 4.34207H95.6176C95.0112 4.34207 93.6164 3.02012 93.5679 2.81394M91.203 5.63977C91.1787 5.56701 91.3242 5.31232 91.3849 5.33657C91.7851 5.48211 93.2041 5.51849 94.5503 5.49424L99.3894 5.44573C100.784 5.42147 101.196 4.73017 101.415 4.73017C101.645 4.73017 102.531 5.9551 102.531 6.52512C102.531 6.62215 102.434 6.68279 102.276 6.68279C102.045 6.68279 100.699 6.61002 99.632 6.61002L94.429 6.63428C93.5922 6.63428 93.0343 6.8162 92.7796 7.04663C92.1247 6.86471 91.3121 5.88234 91.2272 5.62765M102.761 15.1482C100.675 16.1063 96.6727 16.6642 93.9318 17.0038C93.192 17.1008 92.7432 17.2342 92.3066 17.4889C91.6032 17.307 90.5844 16.2761 90.4874 15.888C90.5117 15.7667 90.6087 15.6575 90.6693 15.5848C91.4334 15.5848 92.5492 15.609 93.8954 15.5363C94.7322 15.4878 95.5205 15.4392 96.2361 15.3786L96.1027 13.3775C94.332 13.0743 93.2405 12.0313 93.2405 10.588C93.2405 9.01137 94.6109 7.94411 96.7697 7.82282C96.794 7.7258 96.8183 7.66516 96.8183 7.56814C96.8183 7.38621 96.7697 7.16791 96.5151 6.98599C96.5151 6.54938 97.9098 6.98599 97.9098 7.21642C97.9098 7.31345 97.7885 7.59239 97.7279 7.82282C99.8381 7.96836 101.172 9.03563 101.172 10.588C101.172 12.0313 100.032 13.0743 98.2857 13.3775L98.1887 15.1846C100.396 14.9299 101.888 14.5782 102.882 14.2507C103.088 14.1779 103.004 15.0148 102.749 15.136M76.334 3.83269L76.3097 7.71367H81.7188L81.8522 3.83269H76.3218H76.334ZM72.829 2.9716C72.8047 2.85032 73.1322 2.46222 73.2898 2.46222C73.6901 2.46222 75.0726 2.51074 75.9823 2.6684H81.1367C81.7916 2.6684 82.1312 2.57138 82.3859 2.34094C82.6648 2.24392 84.4719 2.52286 84.4355 2.82607L83.6714 7.49537C83.9989 7.79857 84.4355 8.40497 84.4355 8.73243C84.4355 8.82945 84.3385 8.89009 84.1808 8.89009C83.9504 8.89009 83.0893 8.86584 81.7916 8.86584H76.0793C75.9337 9.12053 75.7518 9.35096 75.5456 9.59352C75.3395 9.7997 74.9635 9.89672 74.6846 9.82395C74.4541 9.26606 74.2601 8.19879 74.1024 6.27043L73.8962 3.85695C73.872 3.62652 73.2171 3.11714 72.829 2.9716ZM85.6968 19.4658C85.6968 19.5628 85.6241 19.6234 85.4421 19.6234H83.0529L75.9459 19.6477C73.969 19.6477 73.5809 18.9685 73.5809 17.6465V15.6697C73.5809 15.318 72.8411 14.7116 72.4166 14.6509C72.2832 14.6267 72.7441 14.0445 72.926 14.0445C73.7386 14.0445 74.9514 14.2264 75.5578 14.4569C75.6791 14.5054 75.861 14.5782 75.8125 14.8328C75.7639 15.136 75.7639 15.5727 75.7639 15.9486V17.6708C75.7639 18.3864 76.0186 18.4834 76.6493 18.4834L82.6163 18.4591C83.8776 18.4591 84.29 17.7557 84.4476 17.7557C84.7751 17.7557 85.6968 18.92 85.6968 19.4536M87.9526 11.9464C87.9526 12.0676 87.8556 12.1283 87.698 12.1283H80.3362V13.4745C80.3362 14.845 79.8268 16.0335 79.4751 16.5672C79.2932 16.7733 78.893 16.8704 78.6383 16.7976C78.4321 16.1669 78.1289 15.3301 78.1289 13.802V12.1283H73.1807C72.3438 12.1283 71.7859 12.3587 71.5313 12.5892C70.8763 12.4072 69.5544 11.3763 69.5544 11.1459C69.5544 11.0489 69.6757 10.7942 69.7363 10.8185C70.1365 10.964 71.5555 10.9761 72.9017 10.9761L84.29 10.9519C85.7332 10.9519 86.2183 10.1393 86.4003 10.1393C86.6549 10.1393 87.9526 11.3763 87.9526 11.9342M55.5101 6.06426C55.5101 7.55601 56.4803 8.55051 57.9478 8.55051C59.4153 8.55051 60.5311 7.55601 60.5311 6.06426C60.5311 4.57251 59.4881 3.57801 57.9721 3.57801C56.4561 3.57801 55.5101 4.58463 55.5101 6.06426ZM53.3028 6.13702C53.3028 4.051 54.9765 2.65627 57.5597 2.51074C57.584 2.43797 57.6083 2.37733 57.6083 2.30456C57.6083 2.09838 57.5597 1.86795 57.2565 1.64964C57.2565 1.18878 58.8089 1.64964 58.8089 1.90433C58.8089 2.00136 58.6877 2.2803 58.627 2.51074C61.089 2.69266 62.7142 4.08738 62.7142 6.13702C62.7142 8.29582 60.8343 9.7148 58.0206 9.7148C55.2069 9.7148 53.3028 8.29582 53.3028 6.13702ZM67.2015 12.48C67.2015 12.577 67.1045 12.6377 66.9469 12.6377H61.9016V13.7534C61.9016 16.8946 61.3437 19.3323 61.0405 20.0479C60.8586 20.2541 60.4341 20.3511 60.2037 20.3026C60.0217 19.7204 59.6943 17.9134 59.6943 15.0997V12.6377L56.1408 12.6619V13.3653C56.1408 16.4823 55.5829 18.92 55.3039 19.6355C55.122 19.8417 54.6975 19.9388 54.4428 19.8902C54.2852 19.3081 53.9577 17.501 53.9577 14.7116V12.6619H52.4296C51.5927 12.6619 51.0348 12.8924 50.7802 13.1228C50.1252 12.9409 48.8033 11.91 48.8033 11.6553C48.8033 11.5825 48.9246 11.3278 48.9852 11.3521C49.3854 11.4855 50.8044 11.5098 52.1506 11.5098L63.5389 11.4612C64.9821 11.4612 65.4672 10.6487 65.6492 10.6487C65.9038 10.6487 67.2015 11.8979 67.2015 12.4557M34.9409 5.1304C34.9409 6.40384 35.899 7.31345 37.3301 7.31345C38.7613 7.31345 39.7194 6.40384 39.7194 5.1304C39.7194 3.85695 38.7613 2.99586 37.3301 2.99586C35.899 2.99586 34.9409 3.88121 34.9409 5.1304ZM32.7336 5.22742C32.7336 3.39608 34.3345 2.062 36.8208 1.90433C36.845 1.78305 36.8935 1.69816 36.8935 1.57688C36.8935 1.3707 36.8208 1.15239 36.5418 0.946218C36.5418 0.461095 38.0942 0.946218 38.0942 1.17665C38.0942 1.32219 37.9366 1.63752 37.8395 1.89221C40.3015 2.04987 41.9509 3.38396 41.9509 5.21529C41.9509 7.14365 40.0711 8.51412 37.3301 8.51412C34.5892 8.51412 32.7336 7.14365 32.7336 5.21529M43.7459 19.8417C43.7459 19.963 43.6489 19.9994 43.4912 19.9994H34.4558C32.9034 19.9994 32.3576 19.4658 32.3213 18.253L32.2728 16.7006C32.2728 16.4701 31.6663 16.1669 31.2783 15.9971C31.254 15.8759 31.6057 15.4878 31.7876 15.4878C32.2242 15.4878 33.8858 15.5848 34.4801 15.791H40.3622L40.3864 13.9111H34.5043C33.7888 13.9111 33.3158 14.093 33.0611 14.3356C32.2242 14.2143 31.5451 13.1228 31.5329 12.9651C31.5087 12.8438 31.63 12.6134 31.7391 12.6377C32.4789 12.7711 33.4128 12.7711 34.759 12.7711H39.5738C40.2288 12.7711 40.5683 12.6983 40.823 12.4436C41.102 12.4194 42.9576 12.6255 42.8969 12.9287L42.3148 15.6697C42.7514 15.9971 43.0303 16.555 43.0303 16.6884C43.0303 16.8097 42.9576 16.8946 42.8484 16.8946C42.6422 16.8946 41.3203 16.8704 40.2409 16.8704H34.4801V17.8891C34.4801 18.6774 34.7105 18.8351 35.7535 18.8351H40.8473C42.2905 18.8351 42.4967 18.2287 42.6544 18.2287C42.9818 18.2287 43.7459 19.3202 43.7459 19.8053M46.4019 10.8548C46.4019 10.9519 46.3049 11.0125 46.1472 11.0125H42.8727L31.6421 11.0368C30.8295 11.0368 30.2716 11.2672 30.0169 11.4734C29.3378 11.2914 28.1371 10.2848 28.0401 10.0301C28.0158 9.95736 28.1613 9.70267 28.222 9.72693C28.6222 9.87247 30.0291 9.89672 31.3874 9.89672L42.7514 9.84821C44.1704 9.84821 44.6555 9.03563 44.8617 9.03563C45.1164 9.03563 46.3898 10.2848 46.3898 10.8427M20.739 10.8063C20.739 11.0125 20.5813 11.0125 20.0234 11.1823C19.793 11.2551 19.6717 11.6189 19.4898 12.2011C19.0896 13.426 17.8161 15.4029 15.1722 15.4029C12.5283 15.4029 11.1336 13.147 11.0365 13.0258C10.9031 12.8438 10.6848 12.674 10.5029 12.674C10.3816 12.674 10.2967 12.7226 10.2239 12.7711C9.26583 13.426 8.22282 14.1658 8.22282 15.8637C8.22282 16.9795 9.15668 18.253 10.7333 18.253C12.0795 18.253 12.9649 16.9795 13.2438 16.0942C13.3409 15.791 13.3166 15.6697 13.4743 15.6697C13.6804 15.6697 13.7532 16.1305 14.0322 16.1305C14.2626 16.1305 14.1898 16.0093 14.493 16.0093C14.772 16.0093 14.8447 16.3852 15.0752 16.3852C15.4026 16.3852 15.8392 16.1063 16.0575 16.1063C16.1303 16.1063 16.2395 16.1063 16.2395 16.1791C16.2395 16.3003 16.0333 16.4095 15.8392 16.5793C15.439 16.931 15.1479 17.1372 14.8447 17.6465C13.7775 19.4536 12.5404 19.7811 11.9097 19.9751C11.6793 20.0479 11.4489 20.1571 11.3519 20.3754C11.0001 21.1637 10.794 21.2607 10.6969 21.2607C10.5757 21.2607 10.5393 21.1273 10.515 20.8241C10.4908 20.4966 10.3088 20.1207 9.67819 20.0115C8.07728 19.7083 6.10041 18.0832 6.10041 15.5241C6.10041 13.2198 7.84685 12.3223 8.7322 11.437C8.85348 11.3157 8.93838 11.1823 8.93838 10.9761V10.9034C8.93838 10.7942 8.91412 10.6487 8.76858 10.4667C7.88324 9.35096 7.21619 8.61115 6.00339 8.61115C4.68143 8.61115 3.51714 9.70267 3.51714 11.2793C3.51714 12.9772 4.35397 13.5594 5.19081 13.7656C5.46975 13.8383 5.56678 13.8626 5.56678 13.9475C5.56678 14.1294 5.38486 14.093 5.38486 14.372C5.38486 14.5782 5.54252 14.5539 5.54252 14.8814C5.54252 15.1118 5.33634 15.1846 5.33634 15.5363C5.33634 15.8152 5.46975 15.9122 5.46975 16.0699C5.46975 16.2761 5.59103 16.2518 5.59103 16.7006C5.59103 16.8218 5.63955 16.9067 5.54252 16.9067C5.4455 16.9067 5.33634 16.7491 5.19081 16.5308C4.86335 16.0456 4.51164 15.7424 4.25695 15.5484C2.23156 14.0809 2.15879 13.4381 1.64942 12.4315C1.52813 12.2011 1.49175 11.8008 1.24919 11.6917C0.509378 11.3157 0 11.2066 0 10.6001C0 10.3212 0.327457 10.6001 0.836836 10.6001C1.11578 10.6001 1.44324 10.6487 1.6009 10.0665C1.95262 8.82945 3.40798 6.85258 5.967 6.85258C8.68369 6.85258 10.0299 9.1084 10.1269 9.22968C10.3088 9.48437 10.4786 9.58139 10.6606 9.58139C10.7818 9.58139 10.8667 9.58139 11.0729 9.39947C12.7951 7.87134 12.9285 7.19217 12.9285 6.30682C12.9285 5.19104 12.0432 3.89333 10.4665 3.89333C8.88986 3.89333 8.13792 5.14252 7.93175 6.07639C7.85898 6.37959 7.81047 6.53725 7.67706 6.53725C7.47088 6.53725 7.47088 6.25831 7.24045 6.25831C6.86448 6.25831 6.82809 6.41597 6.63405 6.41597C6.37936 6.41597 6.37936 5.9551 6.00339 5.9551C5.90636 5.9551 5.70019 6.07639 5.56678 6.07639C5.21506 6.07639 5.19081 6.14915 5.03314 6.14915C4.85122 6.14915 4.65717 6.05213 4.65717 5.91872C4.65717 5.78531 4.77845 5.68829 5.1423 5.50637C5.62742 5.25168 6.07616 5.06976 6.30659 4.54825C7.02214 2.94735 8.61092 2.43797 9.21732 2.20754C9.44775 2.11051 9.56903 2.02561 9.67819 1.80731C10.1633 0.921961 10.3816 0.824937 10.515 0.824937C10.6484 0.824937 10.6363 1.05537 10.6969 1.33432C10.7697 1.66177 10.7697 1.91646 11.3033 2.04987C12.8194 2.4501 15.0388 3.84482 15.0388 6.39171C15.0388 8.93861 12.5283 10.5516 12.407 10.6487C12.1281 10.8548 12.031 11.0246 12.031 11.1823C12.031 11.3036 12.1038 11.437 12.1766 11.5825C12.783 12.7953 13.826 13.5837 15.0388 13.5837C16.482 13.5837 17.5978 12.2374 17.5978 10.8427C17.5978 9.44798 16.6639 8.61115 15.8514 8.35646C15.5482 8.25943 15.4148 8.25943 15.4148 8.10177C15.4148 7.91985 15.6209 7.98049 15.6209 7.70154C15.6209 7.49537 15.5239 7.54388 15.5239 7.21642C15.5239 6.98599 15.8029 6.91322 15.8029 6.56151C15.8029 6.28256 15.6694 6.18554 15.6694 6.02787C15.6694 5.8217 15.5967 5.84595 15.5967 5.39721C15.5967 5.27593 15.5482 5.19104 15.6452 5.19104C15.7665 5.19104 15.8756 5.3487 16.0212 5.56701C16.3486 6.05213 16.6033 6.4281 16.858 6.58576C18.6893 7.75006 19.0896 8.48987 19.514 9.53288C19.6111 9.76331 19.696 10.1635 19.9749 10.3212C20.2053 10.4667 20.7147 10.6244 20.7147 10.8063" fill="white"/>
</svg>
