<svg width="40" height="36" viewBox="0 0 40 36" fill="none" xmlns="http://www.w3.org/2000/svg">
<path d="M30.9317 5.13323C30.5108 5.67172 29.7247 5.65271 29.3037 5.11422C21.1516 -5.35777 -0.847544 0.723966 0.02524 19.0452C0.576146 28.1108 7.90506 35.4152 16.7753 35.7636C26.0788 36.1438 33.9091 28.9407 34.8252 19.7801V33.1852C34.8252 34.6487 35.9827 35.8333 37.4126 35.8333C38.8425 35.8333 40 34.6487 40 33.1852V1.6489C40 0.79999 39.3253 0.10946 38.4958 0.10946H35.8713C35.2585 0.10946 34.6828 0.394541 34.299 0.876012L30.9379 5.13323H30.9317ZM10.9938 12.4503C10.672 12.7227 10.2572 12.8431 9.9168 13.0902C8.39407 14.2812 9.13067 16.4605 9.31018 18.1013C9.5454 20.7367 8.26407 23.2644 6.38852 25.1269C5.09482 23.068 4.33964 20.629 4.32107 18.0126C5.62096 15.3772 7.01989 9.59317 10.9691 11.1326C11.5386 11.3543 11.4271 12.1019 10.9938 12.4503ZM25.4598 25.7858C23.6152 25.7858 23.2066 23.0427 25.0512 22.5295C27.4529 22.0417 27.8553 25.6781 25.4598 25.7858ZM30.2013 21.1295C29.539 21.0598 28.7776 21.2815 28.1772 20.9331C27.9915 20.7874 27.8739 20.5656 27.7686 20.3502C27.032 18.8551 26.2954 17.3537 25.5588 15.8586C22.5505 20.5783 19.9136 25.7478 18.7065 31.2784C16.4101 31.5191 14.0022 31.082 11.9966 30.119C13.8598 26.337 13.6308 20.3376 18.1804 18.6778C18.9232 18.437 19.7217 18.3927 20.4769 18.171C20.8606 18.0633 20.9597 17.9999 20.9968 17.8732C21.3992 16.4161 21.1763 14.8767 21.1639 13.3879C21.2197 12.4123 20.5511 11.8105 19.5917 12.2349C18.5023 12.7417 18.5332 12.7924 17.4438 13.2992C16.5277 8.25645 13.4079 7.24917 8.89545 7.71797C11.1919 5.69072 14.1817 4.56307 17.45 4.4617C29.279 4.1006 30.5851 17.9049 30.5851 17.9049C30.5851 19.0135 30.4551 20.0968 30.2013 21.1295ZM13.0737 11.8105C13.3213 10.3787 15.4011 10.7208 15.203 12.1589C14.9554 13.578 12.8756 13.2485 13.0737 11.8105Z" fill="#846548"/>
</svg>
