<svg width="43" height="43" viewBox="0 0 43 43" fill="none" xmlns="http://www.w3.org/2000/svg">
<path d="M10 18.7833C10 19.0889 10.0444 19.4056 10.1667 19.7056C10.7055 21.0389 12.0778 21.8611 13.8222 21.1667C14.2389 21 25.7778 16.35 25.7778 16.35C25.7778 16.35 21.2333 27.8722 21.0611 28.3C20.4 29.95 21.1944 31.4444 22.5444 31.9444C22.8444 32.0556 23.1556 32.1111 23.4611 32.1056C24.5667 32.1 25.5389 31.45 26.0167 30.15C26.0889 29.9556 31.7722 14.35 31.8944 13.9778C31.9667 13.7556 32.1 13.2333 32.1 12.8722C32.1 12.1 31.8167 11.3722 31.2667 10.8222C30.7278 10.2778 30.0056 10 29.2444 10C28.8722 10 28.5722 10.0667 28.1167 10.2111C27.8444 10.3 13.1944 15.75 11.9444 16.2167C10.6944 16.6833 10 17.6833 10.0056 18.7833" fill="#ED1C24"/>
</svg>
