<svg xmlns="http://www.w3.org/2000/svg" width="179.992" height="180.056" viewBox="0 0 179.992 180.056">
  <g id="그룹_80" data-name="그룹 80" transform="translate(-891.5 -115.5)">
    <g id="그룹_91" data-name="그룹 91" transform="translate(891.5 115.5)">
      <g id="그룹_90" data-name="그룹 90" transform="translate(0 0)">
        <g id="그룹_89" data-name="그룹 89">
          <g id="그룹_88" data-name="그룹 88">
            <g id="그룹_87" data-name="그룹 87">
              <g id="그룹_86" data-name="그룹 86">
                <g id="그룹_85" data-name="그룹 85">
                  <g id="그룹_84" data-name="그룹 84">
                    <g id="그룹_83" data-name="그룹 83">
                      <g id="그룹_82" data-name="그룹 82">
                        <g id="그룹_81" data-name="그룹 81">
                          <g id="그룹_79" data-name="그룹 79">
                            <path id="패스_1" data-name="패스 1" d="M82.987,54.828c.028,15.163-11.768,26.927-27.1,27.021C40.5,81.942,28.35,70.3,28.223,55.353a27.383,27.383,0,0,1,54.764-.526M55.911,43.184A11.548,11.548,0,0,0,43.753,54.45a11.7,11.7,0,0,0,11.26,12.222,11.762,11.762,0,1,0,.9-23.488" transform="translate(31.59 31.029)" fill="#182463"/>
                            <path id="패스_2" data-name="패스 2" d="M67.635,61.131c.1,2.492-1.011,4.631-2.066,6.741C55.7,87.58,40.7,103.108,24.717,117.8a16.3,16.3,0,0,1-4.3,2.469c-4.34,1.99-8.617,1.791-11.539-2.187-2.961-4.035-1.723-8.185,1.64-11.533C18.609,98.5,26.8,90.562,33.97,81.625a245.557,245.557,0,0,0,16.884-24.67c2.607-4.209,6.46-5.644,11.05-3.95,3.575,1.32,5.889,3.963,5.731,8.127" transform="translate(8.066 58.547)" fill="#172362"/>
                            <path id="패스_3" data-name="패스 3" d="M100.4,110.484a17.415,17.415,0,0,1-11.065-4.116C75.561,95.707,63.5,83.235,51.777,70.449c-4.694-5.118-4.463-12.406-.231-15.956s9.78-2.5,14.9,3.086c11.878,12.981,24,25.694,37.859,36.636,3.359,2.651,5.466,5.843,3.529,10.514-1.553,3.749-4.2,5.574-7.437,5.756" transform="translate(54.077 58.682)" fill="#172362"/>
                            <path id="패스_4" data-name="패스 4" d="M73.962,52.567c-4.819,0-7.962.379-10.976-.087-4.847-.748-7.581-4.126-7.623-8.876-.042-4.883,2.725-7.928,7.826-8.418,14.644-1.409,29.29-2.689,43.8-5.307,4.694-.848,9.272.519,10.683,5.959,1.5,5.8-2.035,9.143-6.909,10.734-12.489,4.084-25.5,5.186-36.8,5.993" transform="translate(61.968 33.184)" fill="#182363"/>
                            <path id="패스_5" data-name="패스 5" d="M39.681,54.048A137.851,137.851,0,0,1,7.545,46.94C2.175,45.079-1.411,41.705.536,35.78c1.863-5.669,6.578-6.83,12.179-5.625C23.145,32.4,33.576,34.674,44.081,36.5c8.748,1.526,12.126,3.974,11.578,9.539-.6,6.057-4.582,8.469-15.977,8" transform="translate(0 33.268)" fill="#182363"/>
                            <path id="패스_6" data-name="패스 6" d="M60.179,19.923a148.666,148.666,0,0,1-2.744,26.83c-1.127,5.892-4.807,8.541-10.736,7.585s-7.665-5.249-7.091-10.459q1.764-15.923,2.242-31.918a22.776,22.776,0,0,1,.763-4.188c1.117-5.031,4.082-8.227,9.41-7.721,5.232.5,7.793,4.141,8.11,9.2.223,3.543.042,7.112.047,10.668" transform="translate(44.215 0)" fill="#172362"/>
                            <path id="패스_7" data-name="패스 7" d="M56.5,65.479c-1.45,10.117-2.727,19.773-4.253,29.39-.843,5.315-4.262,7.882-9.613,7.233-5.04-.61-6.8-4.224-6.311-8.723,1.1-10.147,2.318-20.292,3.935-30.367.8-5,4.086-8.331,9.547-7.316,5.415,1.007,6.879,5.245,6.695,9.783" transform="translate(40.57 62.134)" fill="#fea033"/>
                            <path id="패스_8" data-name="패스 8" d="M65,43.771a12.719,12.719,0,0,1,2.984.682c9.011,3.671,18.088,7.2,26.93,11.253,4.527,2.073,8.208,5.466,5.644,11.27-2.441,5.533-7.271,4.934-11.592,3.253-9.5-3.692-18.857-7.79-28.184-11.921-3.927-1.738-5.847-5.008-4.489-9.3,1.1-3.465,3.635-5.512,8.708-5.235" transform="translate(62.527 48.963)" fill="#fe9f32"/>
                            <path id="패스_9" data-name="패스 9" d="M87.993,21.38c.214,8.077-22.92,26.754-30.619,24.719-5.754-1.522-7.85-9.344-3.09-13.741a196.461,196.461,0,0,1,20.9-16.986c5.966-4.152,12.633-.632,12.809,6.008" transform="translate(57.817 15.203)" fill="#fe9f32"/>
                            <path id="패스_10" data-name="패스 10" d="M45.838,53.376c-.18,4.219-2.1,7.417-6.137,8.717-6.551,2.1-13.159,4.086-19.847,5.673-5.334,1.263-9.6-.852-11.236-6.2-1.7-5.548,1.17-9.3,6.334-10.978a180.59,180.59,0,0,1,19.2-5.285c6.693-1.378,11.472,2.24,11.69,8.077" transform="translate(9.101 50.373)" fill="#fe9f32"/>
                            <path id="패스_11" data-name="패스 11" d="M30.983,9.314c4.094-.123,6.752,2.24,8.507,5.5,3.495,6.474,6.754,13.074,10.016,19.669,1.863,3.774,1.907,7.5-1.81,10.183-4.13,2.984-8.526,2.251-11.5-1.431A72.1,72.1,0,0,1,23.333,18.01c-1.443-4.9,2.405-8.734,7.651-8.7" transform="translate(25.778 10.42)" fill="#fea034"/>
                            <path id="패스_12" data-name="패스 12" d="M15.6,25.49c.017-4.605,4.569-7.6,9.128-5.415a38.609,38.609,0,0,1,13.39,11.291c2.791,3.562.2,8.9-4.236,9.674-5.239.918-18.3-10.194-18.281-15.551" transform="translate(17.46 21.653)" fill="#fea134"/>
                          </g>
                        </g>
                      </g>
                    </g>
                  </g>
                </g>
              </g>
            </g>
          </g>
        </g>
      </g>
    </g>
  </g>
</svg>
