<svg xmlns="http://www.w3.org/2000/svg" width="138.6" height="137.127" viewBox="0 0 138.6 137.127">
  <g id="그룹_65" data-name="그룹 65" transform="translate(-1213.3 -159.279)">
    <path id="패스_5" data-name="패스 5" d="M87.444,87.632A69.608,69.608,0,0,1,52.557,56.905c-9.771,14.971-23.6,24.117-39.695,30.81L0,73.568A70.065,70.065,0,0,0,24.56,58.127c7.221-7.043,10.782-15.336,13.119-24.6.719-2.846,1.086-5.78,1.674-9H5.3V7.136h95.747V24.048H66.834c.383,11,2.175,21.7,8.16,30.207S89.2,69.916,99.7,73.171c-.168,4.182-3.648,5.436-5.631,7.756-2.082,2.436-4.5,4.584-6.625,6.7" transform="translate(1213.3 154.002)" fill="#0050b2"/>
    <path id="패스_8" data-name="패스 8" d="M9.519,52.016c7.7,0,14.739-.093,21.774.043,3.2.06,6.612.408,3.66,5.092C38.478,61.4,36,66.357,36.5,70.96c.41,3.766.083,7.611.083,11.7h92.795c0,4.634.365,9.065-.191,13.378-.2,1.581-2.374,3.283-4.048,4.178-1.251.669-3.145.132-4.754.132q-50.185,0-100.369-.008c-7.694-.006-10.4-2.678-10.47-10.662-.106-12.224-.027-24.45-.027-37.661" transform="translate(1222.159 195.856)" fill="#0050b2"/>
    <path id="패스_9" data-name="패스 9" d="M57.583,100.23V6.175H83.569c1.359,7.816,1.781,64.713.622,94.055Z" transform="translate(1267.035 153.104)" fill="#0050b2"/>
  </g>
</svg>
