<svg width="90" height="36" viewBox="0 0 90 36" fill="none" xmlns="http://www.w3.org/2000/svg">
<path d="M30.9317 5.21526C30.5108 5.75375 29.7247 5.73474 29.3037 5.19625C21.1516 -5.27574 -0.847544 0.805997 0.02524 19.1272C0.576146 28.1928 7.90506 35.4972 16.7753 35.8457C26.0788 36.2258 33.9091 29.0227 34.8252 19.8621V33.2673C34.8252 34.7307 35.9827 35.9154 37.4126 35.9154C38.8425 35.9154 40 34.7307 40 33.2673V1.73093C40 0.882021 39.3253 0.191491 38.4958 0.191491H35.8713C35.2585 0.191491 34.6828 0.476572 34.299 0.958043L30.9379 5.21526H30.9317ZM10.9938 12.5323C10.672 12.8048 10.2572 12.9251 9.91679 13.1722C8.39406 14.3632 9.13067 16.5425 9.31018 18.1833C9.5454 20.8187 8.26407 23.3464 6.38852 25.209C5.09482 23.15 4.33964 20.711 4.32107 18.0946C5.62096 15.4592 7.01989 9.6752 10.9691 11.2146C11.5386 11.4364 11.4271 12.1839 10.9938 12.5323ZM25.4598 25.8678C23.6152 25.8678 23.2066 23.1247 25.0512 22.6116C27.4529 22.1238 27.8553 25.7601 25.4598 25.8678ZM30.2013 21.2115C29.539 21.1418 28.7776 21.3635 28.1772 21.0151C27.9915 20.8694 27.8739 20.6477 27.7686 20.4323C27.032 18.9372 26.2954 17.4358 25.5588 15.9407C22.5505 20.6603 19.9136 25.8298 18.7065 31.3604C16.4101 31.6011 14.0022 31.164 11.9966 30.2011C13.8598 26.419 13.6308 20.4196 18.1804 18.7598C18.9232 18.5191 19.7217 18.4747 20.4769 18.253C20.8606 18.1453 20.9597 18.0819 20.9968 17.9552C21.3992 16.4981 21.1763 14.9587 21.1639 13.47C21.2197 12.4943 20.5511 11.8925 19.5917 12.317C18.5023 12.8238 18.5332 12.8744 17.4438 13.3813C16.5277 8.33848 13.4079 7.3312 8.89545 7.8C11.1919 5.77275 14.1817 4.6451 17.45 4.54373C29.279 4.18263 30.5851 17.9869 30.5851 17.9869C30.5851 19.0956 30.4551 20.1789 30.2013 21.2115ZM13.0737 11.8925C13.3213 10.4608 15.4011 10.8029 15.203 12.2409C14.9554 13.66 12.8756 13.3306 13.0737 11.8925Z" fill="white"/>
<path d="M54.3321 20.7362C54.3321 21.2849 54.491 21.6604 54.8087 21.8625C55.1264 22.0647 55.6462 22.1658 56.3682 22.1658C56.9892 22.1658 57.639 22.1153 58.3249 22.0142C59.0108 21.9131 59.5884 21.7615 60.0722 21.5593C60.3899 21.4438 60.6498 21.386 60.852 21.386C61.3863 21.386 61.7906 21.7615 62.065 22.5124C62.2383 22.96 62.3249 23.3571 62.3249 23.7037C62.3249 24.2669 62.0505 24.6784 61.5018 24.9384C60.8664 25.2272 60 25.4582 58.9025 25.6315C57.8051 25.8048 56.7292 25.8914 55.6751 25.8914C55.1841 25.8914 54.7292 25.8698 54.3105 25.8264C53.3718 25.7398 52.6282 25.5088 52.0794 25.1261C51.5307 24.7434 51.1191 24.2308 50.8448 23.5954C50.6137 23.0755 50.4982 22.3319 50.4982 21.3644C50.4982 20.3968 50.5993 19.5304 50.8014 18.6784C50.5126 18.5629 50.3032 18.3968 50.1805 18.1875C50.0578 17.9781 50 17.7109 50 17.3788C50 17.1044 50.0144 16.8878 50.0433 16.729C50.13 16.1947 50.2744 15.8264 50.4765 15.6171C50.6787 15.4077 51.0325 15.2994 51.5379 15.2994C51.8556 15.2994 52.1949 15.3283 52.556 15.386C53.4513 15.5015 54.3538 15.5593 55.2635 15.5593C55.7256 15.5593 56.3755 15.5304 57.213 15.4727C57.343 14.7073 57.4079 14.1369 57.4079 13.7615C57.4079 13.4149 57.3646 13.1622 57.278 13.0033C57.1913 12.8445 57.083 12.7579 56.9531 12.729C56.8231 12.7001 56.6354 12.7001 56.3899 12.7218C55.9134 12.7651 55.3863 12.7867 54.8087 12.7867C53.6101 12.7867 52.6282 12.6929 51.8628 12.5051C51.4152 12.3896 51.0902 12.2236 50.8881 11.9925C50.6859 11.7687 50.5848 11.4438 50.5848 11.0106C50.5848 10.8084 50.6065 10.5918 50.6498 10.3607C50.7365 9.82645 50.8736 9.44378 51.0614 9.21273C51.2491 8.98168 51.5307 8.86616 51.9061 8.86616C52.065 8.86616 52.2527 8.88782 52.4693 8.93114C53.2347 9.07554 54.1011 9.14775 55.0686 9.14775C55.7329 9.14775 56.3321 9.11887 56.8664 9.0611C57.2563 9.01778 57.6173 8.99612 57.9495 8.99612C58.6426 8.99612 59.213 9.11887 59.6534 9.35713C60.0939 9.5954 60.426 10.0142 60.657 10.6135C60.8881 11.2127 61.0036 12.0431 61.0036 13.0972C61.0036 13.7326 60.9603 14.4979 60.8736 15.3932C61.1047 15.6243 61.2635 16.007 61.3502 16.5413C61.3935 16.7723 61.4152 16.9817 61.4152 17.1694C61.4152 17.5882 61.3069 17.9131 61.083 18.1441C60.8592 18.3752 60.4765 18.5485 59.9278 18.664C58.5271 18.9528 56.9531 19.0972 55.2058 19.0972H54.5343L54.4043 19.942C54.361 20.2452 54.3393 20.5124 54.3393 20.7434L54.3321 20.7362ZM68.1805 28.469C67.8412 28.6568 67.3285 28.7506 66.6354 28.7506C66.1588 28.7506 65.7906 28.7218 65.5307 28.6784C65.2708 28.6279 65.0542 28.4979 64.8953 28.2958C64.7292 28.0936 64.6354 27.7759 64.6209 27.3427C64.5199 25.1766 64.4693 22.2308 64.4693 18.5051H63.1913C62.7148 18.5051 62.3899 18.3535 62.2238 18.0575C62.0578 17.7615 61.9783 17.3066 61.9783 16.6784C61.9783 16.0503 62.065 15.6026 62.2238 15.3066C62.3899 15.0106 62.7148 14.8589 63.1913 14.8589H64.4693C64.4838 13.0394 64.5343 11.1189 64.6209 9.09721C64.6498 8.44739 64.8303 8.01417 65.1625 7.79757C65.4946 7.58096 65.9856 7.47266 66.6354 7.47266C67.2852 7.47266 67.8267 7.57374 68.1733 7.77591C68.5199 7.97807 68.6787 8.39684 68.6498 9.03222C68.5487 11.2561 68.4982 14.2885 68.4982 18.1297C68.4982 21.9709 68.5487 25.0033 68.6498 27.2272C68.6787 27.8626 68.5199 28.2741 68.1805 28.4618V28.469Z" fill="white"/>
<path d="M79.3283 7.80381C79.7182 7.80381 80.007 7.95544 80.2019 8.25147C80.3969 8.5475 80.4979 9.05291 80.4979 9.75327C80.4979 10.302 80.4257 10.6775 80.2886 10.8796C80.1514 11.0818 79.8553 11.2118 79.4149 11.2695C79.0106 11.3128 78.5774 11.3345 78.1153 11.3345C77.451 11.3345 76.6712 11.2984 75.7759 11.2262C74.7651 11.1684 74.0142 11.1396 73.5232 11.1396C73.0611 11.1396 72.6207 11.1612 72.2019 11.2045L71.9637 11.2262C71.2127 11.2262 70.8373 10.6269 70.8373 9.42836C70.8373 8.85074 70.9167 8.43197 71.0683 8.18648C71.22 7.941 71.4871 7.79659 71.877 7.76771C72.1369 7.73883 72.5413 7.72439 73.09 7.72439C73.6387 7.72439 74.4257 7.75327 75.4943 7.81103C76.534 7.8688 77.285 7.89768 77.747 7.89768C78.2091 7.89768 78.6568 7.87602 79.0467 7.83269C79.1189 7.81825 79.2127 7.81103 79.3283 7.81103V7.80381ZM79.6748 16.1432C80.0359 16.1432 80.2958 16.2876 80.4474 16.5619C80.599 16.8435 80.6712 17.3706 80.6712 18.1576C80.6712 18.6486 80.599 19.0024 80.4546 19.219C80.3102 19.4356 80.0214 19.5655 79.5882 19.6089C79.1983 19.6522 78.7723 19.6739 78.3102 19.6739C77.5738 19.6739 76.7218 19.6377 75.7543 19.5655C74.599 19.5078 73.7904 19.4789 73.3283 19.4789C72.8951 19.4789 72.5124 19.5006 72.1803 19.5439L71.9637 19.5655C71.5738 19.5655 71.2849 19.3995 71.1044 19.0529C70.9239 18.7136 70.8301 18.2009 70.8301 17.5078C70.8301 16.9735 70.9023 16.6125 71.0467 16.4248C71.1911 16.237 71.4727 16.1287 71.8915 16.0998L72.2164 16.0782C72.2019 15.5583 72.1947 14.7641 72.1947 13.6955C72.1947 13.0601 72.1947 12.6558 72.2164 12.4825C72.2452 12.0493 72.3608 11.7677 72.5629 11.645C72.7651 11.5222 73.1189 11.4645 73.6243 11.4645C74.1586 11.4645 74.5485 11.5294 74.794 11.6738C75.0395 11.811 75.1405 12.0926 75.0972 12.5258C75.0683 13.0168 75.0539 13.645 75.0539 14.4103L75.0756 16.1432L76.3102 16.1865C76.2958 15.7244 76.2886 15.024 76.2886 14.0854C76.2886 13.2479 76.2886 12.7208 76.3102 12.5042C76.3391 12.1432 76.4618 11.9049 76.6857 11.7894C76.9095 11.6738 77.285 11.6161 77.7976 11.6161C78.2741 11.6161 78.6207 11.6738 78.8373 11.7966C79.0539 11.9193 79.1622 12.1504 79.1622 12.4825V16.1865L79.3572 16.1648C79.4294 16.1504 79.5304 16.1432 79.6604 16.1432H79.6748ZM75.2127 28.9446C74.8951 28.9446 74.6135 28.8507 74.3535 28.663C74.1008 28.4753 73.8626 28.2081 73.6315 27.8616C73.285 27.3562 73.1117 26.8941 73.1117 26.4753C73.1117 25.9554 73.3788 25.6161 73.9131 25.4572C75.3138 25.024 76.664 24.3742 77.9709 23.5078C79.2777 22.6414 80.3319 21.7316 81.1405 20.7785C81.5016 20.3598 81.8626 20.1504 82.2236 20.1504C82.6135 20.1504 83.0972 20.3814 83.6748 20.8435C83.9925 21.1035 84.2308 21.3417 84.3824 21.5583C84.534 21.7749 84.6063 21.9915 84.6063 22.2081C84.6063 22.5114 84.4402 22.8652 84.1081 23.2695L83.6965 23.7244C84.0431 23.8544 84.2452 23.9338 84.303 23.9627C85.5449 24.5403 87.1911 25.0024 89.2416 25.3489C89.747 25.4356 89.9998 25.7966 89.9998 26.432C89.9998 26.793 89.9203 27.1973 89.7615 27.645C89.6026 28.0926 89.4005 28.4248 89.1622 28.6414C88.9239 28.858 88.6207 28.9663 88.238 28.9663C88.0936 28.9663 87.9203 28.9446 87.7182 28.9013C85.6243 28.4825 83.8987 27.9266 82.5413 27.2334C81.9059 26.9157 81.5882 26.497 81.5882 25.9771C81.5882 25.8038 81.6026 25.6739 81.6315 25.5872C80.7651 26.2659 79.8337 26.8868 78.8445 27.45C77.8553 28.0132 76.8878 28.4609 75.9275 28.793C75.5954 28.8941 75.3499 28.9446 75.1911 28.9446H75.2127ZM84.8806 18.8941C84.7579 19.1107 84.5774 19.2551 84.3319 19.3128C84.0864 19.3706 83.747 19.4067 83.3138 19.4067C82.8229 19.4067 82.4691 19.385 82.2597 19.3417C82.0503 19.2984 81.8914 19.1757 81.7759 18.9807C81.6604 18.7858 81.5954 18.4609 81.581 17.9915L81.516 14.9374H80.8878C80.4113 14.9374 80.1008 14.8146 79.9564 14.5547C79.812 14.302 79.7398 13.8616 79.7398 13.2479C79.7398 12.6341 79.8192 12.1793 79.9709 11.9121C80.1225 11.645 80.4257 11.515 80.8951 11.515H81.5232L81.5882 8.6558C81.6171 8.1937 81.6821 7.84713 81.7904 7.61609C81.8987 7.38504 82.072 7.23342 82.303 7.15399C82.534 7.07457 82.8734 7.03125 83.3211 7.03125C83.9709 7.03125 84.433 7.12511 84.7001 7.32728C84.9673 7.52222 85.09 7.941 85.0611 8.59082C85.0034 10.3237 84.9745 11.8688 84.9745 13.2262C84.9745 14.5836 85.0034 16.1504 85.0611 17.8832C85.0756 18.3309 85.0178 18.663 84.8951 18.8796L84.8806 18.8941ZM89.2344 19.7605C89.1261 19.9771 88.96 20.1143 88.7362 20.1793C88.5124 20.2442 88.1803 20.2731 87.747 20.2731C87.2561 20.2731 86.8951 20.2442 86.664 20.1937C86.433 20.1432 86.2525 20.0204 86.1225 19.8255C85.9925 19.6305 85.9203 19.3128 85.9059 18.8652C85.8481 17.1323 85.8193 15.4284 85.8193 13.7533C85.8193 12.0782 85.8481 10.3959 85.9059 8.66302C85.9348 7.99876 86.0792 7.55833 86.3463 7.34894C86.6135 7.13955 87.0828 7.03847 87.747 7.03847C88.1658 7.03847 88.4907 7.07457 88.7218 7.14677C88.9528 7.21898 89.1261 7.3706 89.2344 7.59443C89.3427 7.81825 89.386 8.1576 89.3788 8.60526C89.3211 10.3381 89.2922 12.0276 89.2922 13.6739C89.2922 15.3201 89.3211 17.0312 89.3788 18.7641C89.3933 19.2118 89.3499 19.5439 89.2344 19.7605Z" fill="white"/>
</svg>
