<svg width="114" height="44" viewBox="0 0 114 44" fill="none" xmlns="http://www.w3.org/2000/svg">
<path d="M37.118 6.65987C36.6129 7.30606 35.6696 7.28325 35.1645 6.63707C25.3819 -5.92932 -1.01705 1.36876 0.030288 23.3542C0.691376 34.2329 9.48607 42.9983 20.1303 43.4164C31.2945 43.8725 40.6909 35.2288 41.7902 24.2361V40.3223C41.7902 42.0784 43.1793 43.5 44.8951 43.5C46.611 43.5 48 42.0784 48 40.3223V2.47868C48 1.45999 47.1903 0.631351 46.195 0.631351H43.0456C42.3102 0.631351 41.6194 0.973449 41.1589 1.55121L37.1255 6.65987H37.118ZM13.1926 15.4404C12.8064 15.7673 12.3087 15.9117 11.9002 16.2082C10.0729 17.6374 10.9568 20.2526 11.1722 22.2215C11.4545 25.384 9.91689 28.4173 7.66622 30.6523C6.11378 28.1816 5.20757 25.2548 5.18529 22.1151C6.74516 18.9526 8.42387 12.0118 13.1629 13.8591C13.8463 14.1252 13.7126 15.0223 13.1926 15.4404ZM30.5517 31.443C28.3382 31.443 27.848 28.1512 30.0615 27.5354C32.9435 26.9501 33.4264 31.3137 30.5517 31.443ZM36.2416 25.8554C35.4468 25.7717 34.5331 26.0378 33.8126 25.6197C33.5898 25.4448 33.4486 25.1788 33.3224 24.9203C32.4384 23.1262 31.5545 21.3245 30.6706 19.5304C27.0606 25.194 23.8963 31.3973 22.4478 38.034C19.6921 38.3229 16.8026 37.7984 14.3959 36.6428C16.6318 32.1043 16.3569 24.9051 21.8165 22.9133C22.7078 22.6244 23.666 22.5712 24.5722 22.3051C25.0328 22.1759 25.1516 22.0999 25.1962 21.9478C25.679 20.1993 25.4116 18.352 25.3967 16.5655C25.4636 15.3948 24.6614 14.6726 23.51 15.1819C22.2027 15.7901 22.2399 15.8509 20.9325 16.4591C19.8332 10.4077 16.0895 9.199 10.6745 9.76156C13.4303 7.32887 17.018 5.97568 20.94 5.85404C35.1348 5.42072 36.7021 21.9859 36.7021 21.9859C36.7021 23.3162 36.5461 24.6162 36.2416 25.8554ZM15.6884 14.6726C15.9855 12.9545 18.4813 13.365 18.2436 15.0907C17.9465 16.7936 15.4507 16.3983 15.6884 14.6726Z" fill="#846548"/>
<path d="M64 25.788C64 26.548 64.22 27.068 64.66 27.348C65.1 27.628 65.82 27.768 66.82 27.768C67.68 27.768 68.58 27.698 69.53 27.558C70.48 27.418 71.28 27.208 71.95 26.928C72.39 26.768 72.75 26.688 73.03 26.688C73.77 26.688 74.33 27.208 74.71 28.248C74.95 28.868 75.07 29.418 75.07 29.898C75.07 30.678 74.69 31.248 73.93 31.608C73.05 32.008 71.85 32.328 70.33 32.568C68.81 32.808 67.32 32.928 65.86 32.928C65.18 32.928 64.55 32.898 63.97 32.838C62.67 32.718 61.64 32.398 60.88 31.868C60.12 31.338 59.55 30.628 59.17 29.748C58.85 29.028 58.69 27.998 58.69 26.658C58.69 25.318 58.83 24.118 59.11 22.938C58.71 22.778 58.42 22.548 58.25 22.258C58.08 21.968 58 21.598 58 21.138C58 20.758 58.02 20.458 58.06 20.238C58.18 19.498 58.38 18.988 58.66 18.698C58.94 18.408 59.43 18.258 60.13 18.258C60.57 18.258 61.04 18.298 61.54 18.378C62.78 18.538 64.03 18.618 65.29 18.618C65.93 18.618 66.83 18.578 67.99 18.498C68.17 17.438 68.26 16.648 68.26 16.128C68.26 15.648 68.2 15.298 68.08 15.078C67.96 14.858 67.81 14.738 67.63 14.698C67.45 14.658 67.19 14.658 66.85 14.688C66.19 14.748 65.46 14.778 64.66 14.778C63 14.778 61.64 14.648 60.58 14.388C59.96 14.228 59.51 13.998 59.23 13.678C58.95 13.368 58.81 12.918 58.81 12.318C58.81 12.038 58.84 11.738 58.9 11.418C59.02 10.678 59.21 10.148 59.47 9.82797C59.73 9.50797 60.12 9.34797 60.64 9.34797C60.86 9.34797 61.12 9.37797 61.42 9.43797C62.48 9.63797 63.68 9.73797 65.02 9.73797C65.94 9.73797 66.77 9.69797 67.51 9.61797C68.05 9.55797 68.55 9.52797 69.01 9.52797C69.97 9.52797 70.76 9.69797 71.37 10.028C71.98 10.358 72.44 10.938 72.76 11.768C73.08 12.598 73.24 13.748 73.24 15.208C73.24 16.088 73.18 17.148 73.06 18.388C73.38 18.708 73.6 19.238 73.72 19.978C73.78 20.298 73.81 20.588 73.81 20.848C73.81 21.428 73.66 21.878 73.35 22.198C73.04 22.518 72.51 22.758 71.75 22.918C69.81 23.318 67.63 23.518 65.21 23.518H64.28L64.1 24.688C64.04 25.108 64.01 25.478 64.01 25.798L64 25.788ZM83.18 36.498C82.71 36.758 82 36.888 81.04 36.888C80.38 36.888 79.87 36.848 79.51 36.788C79.15 36.718 78.85 36.538 78.63 36.258C78.4 35.978 78.27 35.538 78.25 34.938C78.11 31.938 78.04 27.858 78.04 22.698H76.27C75.61 22.698 75.16 22.488 74.93 22.078C74.7 21.668 74.59 21.038 74.59 20.168C74.59 19.298 74.71 18.678 74.93 18.268C75.16 17.858 75.61 17.648 76.27 17.648H78.04C78.06 15.128 78.13 12.468 78.25 9.66797C78.29 8.76797 78.54 8.16797 79 7.86797C79.46 7.56797 80.14 7.41797 81.04 7.41797C81.94 7.41797 82.69 7.55797 83.17 7.83797C83.65 8.11797 83.87 8.69797 83.83 9.57797C83.69 12.658 83.62 16.858 83.62 22.178C83.62 27.498 83.69 31.698 83.83 34.778C83.87 35.658 83.65 36.228 83.18 36.488V36.498Z" fill="#846548"/>
<path d="M98.6201 7.87859C99.1601 7.87859 99.5601 8.08859 99.8301 8.49859C100.1 8.90859 100.24 9.60859 100.24 10.5786C100.24 11.3386 100.14 11.8586 99.9501 12.1386C99.7601 12.4186 99.3501 12.5986 98.7401 12.6786C98.1801 12.7386 97.5801 12.7686 96.9401 12.7686C96.0201 12.7686 94.9401 12.7186 93.7001 12.6186C92.3001 12.5386 91.2601 12.4986 90.5801 12.4986C89.9401 12.4986 89.3301 12.5286 88.7501 12.5886L88.4201 12.6186C87.3801 12.6186 86.8601 11.7886 86.8601 10.1286C86.8601 9.32859 86.9701 8.74859 87.1801 8.40859C87.3901 8.06859 87.7601 7.86859 88.3001 7.82859C88.6601 7.78859 89.2201 7.76859 89.9801 7.76859C90.7401 7.76859 91.8301 7.80859 93.3101 7.88859C94.7501 7.96859 95.7901 8.00859 96.4301 8.00859C97.0701 8.00859 97.6901 7.97859 98.2301 7.91859C98.3301 7.89859 98.4601 7.88859 98.6201 7.88859V7.87859ZM99.1001 19.4286C99.6001 19.4286 99.9601 19.6286 100.17 20.0086C100.38 20.3986 100.48 21.1286 100.48 22.2186C100.48 22.8986 100.38 23.3886 100.18 23.6886C99.9801 23.9886 99.5801 24.1686 98.9801 24.2286C98.4401 24.2886 97.8501 24.3186 97.2101 24.3186C96.1901 24.3186 95.0101 24.2686 93.6701 24.1686C92.0701 24.0886 90.9501 24.0486 90.3101 24.0486C89.7101 24.0486 89.1801 24.0786 88.7201 24.1386L88.4201 24.1686C87.8801 24.1686 87.4801 23.9386 87.2301 23.4586C86.9801 22.9886 86.8501 22.2786 86.8501 21.3186C86.8501 20.5786 86.9501 20.0786 87.1501 19.8186C87.3501 19.5586 87.7401 19.4086 88.3201 19.3686L88.7701 19.3386C88.7501 18.6186 88.7401 17.5186 88.7401 16.0386C88.7401 15.1586 88.7401 14.5986 88.7701 14.3586C88.8101 13.7586 88.9701 13.3686 89.2501 13.1986C89.5301 13.0286 90.0201 12.9486 90.7201 12.9486C91.4601 12.9486 92.0001 13.0386 92.3401 13.2386C92.6801 13.4286 92.8201 13.8186 92.7601 14.4186C92.7201 15.0986 92.7001 15.9686 92.7001 17.0286L92.7301 19.4286L94.4401 19.4886C94.4201 18.8486 94.4101 17.8786 94.4101 16.5786C94.4101 15.4186 94.4101 14.6886 94.4401 14.3886C94.4801 13.8886 94.6501 13.5586 94.9601 13.3986C95.2701 13.2386 95.7901 13.1586 96.5001 13.1586C97.1601 13.1586 97.6401 13.2386 97.9401 13.4086C98.2401 13.5786 98.3901 13.8986 98.3901 14.3586V19.4886L98.6601 19.4586C98.7601 19.4386 98.9001 19.4286 99.0801 19.4286H99.1001ZM92.9201 37.1586C92.4801 37.1586 92.0901 37.0286 91.7301 36.7686C91.3801 36.5086 91.0501 36.1386 90.7301 35.6586C90.2501 34.9586 90.0101 34.3186 90.0101 33.7386C90.0101 33.0186 90.3801 32.5486 91.1201 32.3286C93.0601 31.7286 94.9301 30.8286 96.7401 29.6286C98.5501 28.4286 100.01 27.1686 101.13 25.8486C101.63 25.2686 102.13 24.9786 102.63 24.9786C103.17 24.9786 103.84 25.2986 104.64 25.9386C105.08 26.2986 105.41 26.6286 105.62 26.9286C105.83 27.2286 105.93 27.5286 105.93 27.8286C105.93 28.2486 105.7 28.7386 105.24 29.2986L104.67 29.9286C105.15 30.1086 105.43 30.2186 105.51 30.2586C107.23 31.0586 109.51 31.6986 112.35 32.1786C113.05 32.2986 113.4 32.7986 113.4 33.6786C113.4 34.1786 113.29 34.7386 113.07 35.3586C112.85 35.9786 112.57 36.4386 112.24 36.7386C111.91 37.0386 111.49 37.1886 110.96 37.1886C110.76 37.1886 110.52 37.1586 110.24 37.0986C107.34 36.5186 104.95 35.7486 103.07 34.7886C102.19 34.3486 101.75 33.7686 101.75 33.0486C101.75 32.8086 101.77 32.6286 101.81 32.5086C100.61 33.4486 99.3201 34.3086 97.9501 35.0886C96.5801 35.8686 95.2401 36.4886 93.9101 36.9486C93.4501 37.0886 93.1101 37.1586 92.8901 37.1586H92.9201ZM106.31 23.2386C106.14 23.5386 105.89 23.7386 105.55 23.8186C105.21 23.8986 104.74 23.9486 104.14 23.9486C103.46 23.9486 102.97 23.9186 102.68 23.8586C102.39 23.7986 102.17 23.6286 102.01 23.3586C101.85 23.0886 101.76 22.6386 101.74 21.9886L101.65 17.7586H100.78C100.12 17.7586 99.6901 17.5886 99.4901 17.2286C99.2901 16.8786 99.1901 16.2686 99.1901 15.4186C99.1901 14.5686 99.3001 13.9386 99.5101 13.5686C99.7201 13.1986 100.14 13.0186 100.79 13.0186H101.66L101.75 9.05859C101.79 8.41859 101.88 7.93859 102.03 7.61859C102.18 7.29859 102.42 7.08859 102.74 6.97859C103.06 6.86859 103.53 6.80859 104.15 6.80859C105.05 6.80859 105.69 6.93859 106.06 7.21859C106.43 7.48859 106.6 8.06859 106.56 8.96859C106.48 11.3686 106.44 13.5086 106.44 15.3886C106.44 17.2686 106.48 19.4386 106.56 21.8386C106.58 22.4586 106.5 22.9186 106.33 23.2186L106.31 23.2386ZM112.34 24.4386C112.19 24.7386 111.96 24.9286 111.65 25.0186C111.34 25.1086 110.88 25.1486 110.28 25.1486C109.6 25.1486 109.1 25.1086 108.78 25.0386C108.46 24.9686 108.21 24.7986 108.03 24.5286C107.85 24.2586 107.75 23.8186 107.73 23.1986C107.65 20.7986 107.61 18.4386 107.61 16.1186C107.61 13.7986 107.65 11.4686 107.73 9.06859C107.77 8.14859 107.97 7.53859 108.34 7.24859C108.71 6.95859 109.36 6.81859 110.28 6.81859C110.86 6.81859 111.31 6.86859 111.63 6.96859C111.95 7.06859 112.19 7.27859 112.34 7.58859C112.49 7.89859 112.55 8.36859 112.54 8.98859C112.46 11.3886 112.42 13.7286 112.42 16.0086C112.42 18.2886 112.46 20.6586 112.54 23.0586C112.56 23.6786 112.5 24.1386 112.34 24.4386Z" fill="#846548"/>
</svg>
